<?xml version="1.0" encoding="UTF-8" standalone="no"?>
<svg
   width="16"
   height="16"
   version="1.1"
   id="svg2"
   xml:space="preserve"
   xmlns="http://www.w3.org/2000/svg"
   xmlns:svg="http://www.w3.org/2000/svg"
   xmlns:rdf="http://www.w3.org/1999/02/22-rdf-syntax-ns#"
   xmlns:cc="http://creativecommons.org/ns#"
   xmlns:dc="http://purl.org/dc/elements/1.1/"><metadata
     id="metadata10"><rdf:RDF><cc:Work
         rdf:about=""><dc:format>image/svg+xml</dc:format><dc:type
           rdf:resource="http://purl.org/dc/dcmitype/StillImage" /></cc:Work></rdf:RDF></metadata><defs
     id="defs8" /><path
     style="fill:#aaaaaa;fill-opacity:1;stroke:none;stroke-width:0.0579771"
     d="m 5.1192772,11.772477 v -0.05798 C 4.6858636,11.695599 4.2867318,11.544743 3.9017581,11.352259 3.5689696,11.185864 3.2966859,10.991235 3.0321479,10.728657 1.6035053,9.3106537 2.2275418,7.8184392 2.684239,6.1486987 H 2.742216 L 2.3363764,7.7140804 h 0.057977 C 2.8726935,4.4750796 6.4464889,2.1722119 9.4675595,1.8487751 c 2.3387385,-0.2503857 4.7006095,0.9523492 5.3670565,3.314313 0.368096,1.3046586 0.02852,2.4413576 -0.265072,3.7105342 h 0.05798 C 15.395718,7.0285012 16.032944,5.0368429 14.827832,3.1918667 14.5347,2.7430602 14.16011,2.4264473 13.757865,2.0826953 13.320834,1.7092474 12.85493,1.4126018 12.308438,1.2252082 11.530907,0.95858773 10.740331,0.98873703 9.9313763,0.98873703 V 0.93075993 H 11.380804 C 10.51567,0.51500154 9.002989,0.84730656 8.1340863,1.1246411 5.4249324,1.9893753 2.7488718,4.0863896 1.8148086,6.8444239 1.1915549,8.684733 1.6089841,10.845655 3.6118726,11.573267 c 0.4957854,0.180135 0.986834,0.19921 1.5074046,0.19921 M 9.6994679,1.0080607 c 0.044816,0 0.00928,0.028867 -0.019306,0.01933 l 0.019306,-0.01933 M 6.8585901,2.786027 V 2.844004 C 8.6573876,2.4316304 10.826195,2.2170862 11.780266,4.1774774 11.925325,4.4754507 12.032235,4.776317 12.076529,5.105111 h -0.05798 C 11.945389,4.6169728 11.647209,4.0831371 11.26485,3.7716377 11.528762,4.4055767 11.757075,4.9856318 11.784325,5.6848819 11.921267,9.2000914 8.668867,11.945828 5.4091627,12.335724 2.7000493,12.6597 0.66895155,10.510953 1.2862546,7.8300346 1.5264363,6.7869686 2.0567586,5.9659375 2.5682848,5.0471339 0.98604345,6.2608264 0.69807115,8.6334232 0.71301765,10.439003 h -0.057977 v -0.347862 h -0.057977 l 0.1159542,1.449427 h -0.057977 v -0.173931 c -0.1643048,0.535824 0.3122357,1.420961 0.60039345,1.855267 1.4709021,2.217044 3.8567758,1.767026 6.0669729,1.366868 3.1481568,-0.570089 6.0617378,-3.217787 6.8033808,-6.3528977 0.152711,-0.645749 0.180598,-1.3099926 0.15161,-1.9712214 C 14.256758,5.7950094 14.130252,5.3073409 13.954755,4.8732026 12.760079,1.9175707 9.4014656,1.9257745 6.8585901,2.786027 m -0.1352606,0.077301 0.038613,0.01933 -0.038613,-0.01933 M 2.9741244,8.0619431 v 0.057977 L 5.2932085,7.5907631 6.4527504,7.2713093 9.2356511,5.1630881 7.3224069,6.8927768 6.6144486,7.6079823 6.8980725,8.5257598 7.7862237,10.844843 h 0.057977 L 10.743056,4.0035461 8.1920634,5.3191276 2.9741244,8.061943 m 9.4502676,-3.7105343 -0.05798,0.057977 0.05798,-0.057977 m -8.580611,0.057977 -0.057977,0.057977 0.057977,-0.057977 m 8.638588,0.057977 C 13.464965,6.1572446 13.098608,8.307534 12.264781,9.9751872 11.97449,10.555769 11.613292,11.255843 11.090919,11.656522 12.038902,10.134218 13.043239,8.6130153 12.996684,6.7284697 12.98474,6.2445349 12.89992,5.7397515 12.75231,5.2790423 12.669983,5.0221573 12.47947,4.7339242 12.482369,4.4673629 M 3.6698497,4.6412942 3.5538955,4.7572484 3.6698497,4.6412942 M 9.6994679,4.7572484 9.2356511,5.1630881 9.6994679,4.7572484 M 3.5538955,4.8152255 2.8001932,6.1486987 H 2.7422161 C 2.8763287,5.68316 3.1788068,5.1252232 3.5538955,4.8152255 m -0.9276336,0.057977 0.057977,0.057977 -0.057977,-0.057977 m 9.5082441,0.2898855 -0.05798,0.057977 0.05798,-0.057977 M 2.2783993,7.7720575 v 0.1739313 h 0.057977 L 2.2783993,7.7720575 m 0.5797709,0.3478626 0.057977,0.057977 -0.057977,-0.057977 M 0.77099475,10.439003 c 0.2270209,1.684525 1.81817335,2.711067 3.42064885,2.78064 0.6782451,0.02939 1.3110825,-0.190571 1.9712213,-0.287624 v 0.05798 C 4.4433454,13.387777 2.4116017,13.658008 1.2556601,11.946408 1.0107417,11.583761 0.59628835,10.886761 0.77099475,10.439003 m 0,1.101565 0.057977,0.289886 h -0.057977 v -0.289886 m 10.26194625,0.231909 -0.05798,0.05798 0.05798,-0.05798 m -4.4062593,0.98561 v 0.05798 l -0.2319084,0.05798 0.2319084,-0.115955 m -0.3478626,0.135261 c 0.044816,0 0.00928,0.02887 -0.019306,0.01936 z"
     id="path2222" /></svg>
